<svg width="30" height="30" viewBox="0 0 30 30" fill="none" xmlns="http://www.w3.org/2000/svg">
<path d="M29 15C29 22.732 22.732 29 15 29C7.26801 29 1 22.732 1 15C1 7.26801 7.26801 1 15 1C22.732 1 29 7.26801 29 15Z" stroke="black" stroke-width="2"/>
<path fill-rule="evenodd" clip-rule="evenodd" d="M19.1828 8.18182H10.8172C9.36441 8.18182 8.18181 9.36361 8.18181 10.8172V19.1828C8.18181 20.6364 9.36441 21.8182 10.8172 21.8182H19.1828C20.6356 21.8182 21.8182 20.6364 21.8182 19.1828V10.8172C21.8182 9.36361 20.6356 8.18182 19.1828 8.18182V8.18182ZM19.9389 9.75408L20.2403 9.75247V12.064L17.9361 12.0712L17.928 9.75969L19.9389 9.75408V9.75408ZM13.0541 13.6001C13.4903 12.9956 14.199 12.5995 15 12.5995C15.801 12.5995 16.5097 12.9956 16.9459 13.6001C17.2305 13.9946 17.4005 14.4772 17.4005 15C17.4005 16.3229 16.3237 17.3997 15 17.3997C13.6771 17.3997 12.6003 16.3229 12.6003 15C12.6003 14.4772 12.7703 13.9946 13.0541 13.6001V13.6001ZM20.4897 19.1828C20.4897 19.9036 19.9036 20.4897 19.1828 20.4897H10.8172C10.0964 20.4897 9.51035 19.9036 9.51035 19.1828V13.6001H11.5468C11.3704 14.0331 11.2718 14.5053 11.2718 15C11.2718 17.0557 12.9443 18.729 15 18.729C17.0565 18.729 18.729 17.0557 18.729 15C18.729 14.5053 18.6288 14.0331 18.454 13.6001H20.4897V19.1828V19.1828Z" fill="black"/>
</svg>
