<svg width="30" height="30" viewBox="0 0 30 30" fill="none" xmlns="http://www.w3.org/2000/svg">
<path d="M29 15C29 22.732 22.732 29 15 29C7.26801 29 1 22.732 1 15C1 7.26801 7.26801 1 15 1C22.732 1 29 7.26801 29 15Z" stroke="black" stroke-width="2"/>
<path fill-rule="evenodd" clip-rule="evenodd" d="M16.7501 11.0411C16.7501 10.0769 15.9603 9.29295 14.9892 9.29295C14.0189 9.29295 13.2283 10.0769 13.2283 11.0411C13.2283 12.0045 14.0189 12.789 14.9892 12.789C15.9603 12.789 16.7501 12.0045 16.7501 11.0411ZM19.2422 11.0411C19.2422 13.3691 17.3352 15.2627 14.9892 15.2627C12.6437 15.2627 10.7362 13.3691 10.7362 11.0411C10.7362 8.71235 12.6437 6.81818 14.9892 6.81818C17.3352 6.81818 19.2422 8.71235 19.2422 11.0411ZM19.1904 17.6939C18.4214 18.1734 17.5865 18.5135 16.7208 18.7093L19.0983 21.0701C19.5854 21.5527 19.5854 22.3364 19.0983 22.8195C18.6118 23.3026 17.8232 23.3026 17.3371 22.8195L14.9996 20.4996L12.664 22.8195C12.4205 23.0608 12.1014 23.1816 11.7823 23.1816C11.4637 23.1816 11.1451 23.0608 10.9015 22.8195C10.415 22.3364 10.415 21.5532 10.901 21.0701L13.2788 18.7093C12.4131 18.5135 11.5782 18.1729 10.8092 17.6939C10.2272 17.3295 10.0524 16.5663 10.4191 15.9879C10.7847 15.4088 11.5538 15.2345 12.1368 15.5988C13.8778 16.6863 16.1208 16.6865 17.8629 15.5988C18.4459 15.2345 19.2146 15.4088 19.5811 15.9879C19.9478 16.5658 19.7724 17.3295 19.1904 17.6939Z" fill="black"/>
</svg>
