<svg width="30" height="30" viewBox="0 0 30 30" fill="none" xmlns="http://www.w3.org/2000/svg">
<path d="M29 15C29 22.732 22.732 29 15 29C7.26801 29 1 22.732 1 15C1 7.26801 7.26801 1 15 1C22.732 1 29 7.26801 29 15Z" stroke="black" stroke-width="2"/>
<path fill-rule="evenodd" clip-rule="evenodd" d="M20.8133 11.4857C21.4201 11.1028 21.8856 10.4956 22.1042 9.77237C21.536 10.1278 20.9082 10.3849 20.2384 10.524C19.7039 9.92128 18.94 9.54546 18.0945 9.54546C16.4725 9.54546 15.1581 10.9326 15.1581 12.6433C15.1581 12.8862 15.1825 13.1229 15.2329 13.3489C12.7923 13.2195 10.6283 11.9874 9.17854 10.1118C8.92558 10.571 8.78103 11.1028 8.78103 11.6701C8.78103 12.7444 9.29956 13.6928 10.0879 14.2494C9.60631 14.2335 9.15333 14.0926 8.75665 13.8621V13.9002C8.75665 15.4017 9.76852 16.6542 11.114 16.9378C10.8669 17.0105 10.6081 17.0468 10.3392 17.0468C10.1501 17.0468 9.96517 17.0282 9.787 16.9919C10.1601 18.2222 11.2451 19.1192 12.531 19.1431C11.525 19.9745 10.2585 20.4691 8.88272 20.4691C8.64572 20.4691 8.41124 20.4558 8.18181 20.4266C9.48193 21.305 11.0258 21.8182 12.6848 21.8182C18.0886 21.8182 21.0419 17.0974 21.0419 13.0032C21.0419 12.8685 21.0402 12.7346 21.0343 12.6026C21.6083 12.1656 22.1075 11.6196 22.5 10.9982C21.973 11.2446 21.4066 11.4113 20.8133 11.4857Z" fill="black"/>
</svg>
