<svg width="30" height="30" viewBox="0 0 30 30" fill="none" xmlns="http://www.w3.org/2000/svg">
<path d="M29 15C29 22.732 22.732 29 15 29C7.26801 29 1 22.732 1 15C1 7.26801 7.26801 1 15 1C22.732 1 29 7.26801 29 15Z" stroke="black" stroke-width="2"/>
<path fill-rule="evenodd" clip-rule="evenodd" d="M15.495 20.4077C15.495 20.4077 15.8026 20.3741 15.9602 20.208C16.1044 20.0558 16.0994 19.7686 16.0994 19.7686C16.0994 19.7686 16.0803 18.4273 16.7147 18.2292C17.34 18.0345 18.1428 19.5263 18.9949 20.1C19.6385 20.5337 20.127 20.4388 20.127 20.4388L22.4038 20.4077C22.4038 20.4077 23.5943 20.3357 23.0299 19.4167C22.9833 19.3414 22.7006 18.7366 21.3375 17.4944C19.9094 16.194 20.1012 16.4043 21.8202 14.1547C22.8674 12.7848 23.2859 11.9484 23.155 11.5908C23.0308 11.2487 22.2604 11.3395 22.2604 11.3395L19.6977 11.3551C19.6977 11.3551 19.5076 11.3297 19.3667 11.4124C19.2291 11.4934 19.1399 11.6824 19.1399 11.6824C19.1399 11.6824 18.7347 12.7422 18.1937 13.644C17.0524 15.5459 16.5963 15.6465 16.4096 15.5287C15.9752 15.2529 16.0836 14.4223 16.0836 13.8322C16.0836 11.9885 16.3687 11.2201 15.5292 11.0212C15.2507 10.9549 15.0457 10.9116 14.3328 10.9042C13.4183 10.8952 12.6446 10.9075 12.2061 11.1178C11.9143 11.2577 11.6892 11.5703 11.8268 11.5883C11.996 11.6104 12.3795 11.6898 12.5829 11.9615C12.8455 12.3126 12.8364 13.0998 12.8364 13.0998C12.8364 13.0998 12.9873 15.2701 12.4837 15.5393C12.1386 15.7243 11.665 15.347 10.6471 13.6211C10.126 12.7373 9.73252 11.7602 9.73252 11.7602C9.73252 11.7602 9.65666 11.5777 9.52076 11.4795C9.35653 11.3608 9.12726 11.324 9.12726 11.324L6.69204 11.3395C6.69204 11.3395 6.32605 11.3494 6.19183 11.5057C6.07261 11.644 6.18265 11.9312 6.18265 11.9312C6.18265 11.9312 8.08931 16.3102 10.2486 18.5173C12.2286 20.5403 14.4762 20.4077 14.4762 20.4077H15.495Z" fill="black"/>
</svg>
